<mxfile host="app.diagrams.net" agent="Mozilla/5.0 (Windows NT 10.0; Win64; x64) AppleWebKit/537.36 (KHTML, like Gecko) Chrome/135.0.0.0 Safari/537.36" version="26.2.13">
  <diagram name="Trang-1" id="5ZuAhYpz-115ECPr_079">
    <mxGraphModel dx="4264" dy="2604" grid="1" gridSize="10" guides="1" tooltips="1" connect="1" arrows="1" fold="1" page="1" pageScale="1" pageWidth="827" pageHeight="1169" math="0" shadow="0">
      <root>
        <mxCell id="0" />
        <mxCell id="1" parent="0" />
        <mxCell id="uPNDVt0pAV8qcbmSIgeI-4" value="Application" style="rounded=0;whiteSpace=wrap;html=1;fontSize=64;fontStyle=1;verticalAlign=top;" vertex="1" parent="1">
          <mxGeometry x="-1340" y="-1100" width="1810" height="2300" as="geometry" />
        </mxCell>
        <mxCell id="uPNDVt0pAV8qcbmSIgeI-5" value="Infrastructure" style="rounded=0;whiteSpace=wrap;html=1;fontSize=64;fontStyle=1;verticalAlign=top;" vertex="1" parent="1">
          <mxGeometry x="610" y="-1120" width="1350" height="1970" as="geometry" />
        </mxCell>
        <mxCell id="9c7Lphumz_TT43BJqh4M-22" value="" style="group;fontSize=24;verticalAlign=top;" parent="1" vertex="1" connectable="0">
          <mxGeometry x="-640" y="300" width="960" height="840" as="geometry" />
        </mxCell>
        <mxCell id="9c7Lphumz_TT43BJqh4M-23" value="DTO" style="shape=folder;fontStyle=1;spacingTop=10;tabWidth=40;tabHeight=14;tabPosition=left;html=1;whiteSpace=wrap;verticalAlign=top;fontSize=32;" parent="9c7Lphumz_TT43BJqh4M-22" vertex="1">
          <mxGeometry y="-19.23" width="960" height="859.23" as="geometry" />
        </mxCell>
        <mxCell id="9c7Lphumz_TT43BJqh4M-46" value="&lt;font style=&quot;font-size: 24px;&quot;&gt;Response&lt;/font&gt;" style="shape=folder;fontStyle=1;spacingTop=10;tabWidth=40;tabHeight=14;tabPosition=left;html=1;whiteSpace=wrap;verticalAlign=top;" parent="9c7Lphumz_TT43BJqh4M-22" vertex="1">
          <mxGeometry x="510" y="71.05263157894737" width="430" height="724.7368421052631" as="geometry" />
        </mxCell>
        <mxCell id="9c7Lphumz_TT43BJqh4M-28" value="UserResponse" style="shape=folder;fontStyle=1;spacingTop=10;tabWidth=40;tabHeight=14;tabPosition=left;html=1;whiteSpace=wrap;fontSize=16;" parent="9c7Lphumz_TT43BJqh4M-22" vertex="1">
          <mxGeometry x="740" y="342.09999999999997" width="160" height="54.73" as="geometry" />
        </mxCell>
        <mxCell id="9c7Lphumz_TT43BJqh4M-29" value="GoodsResponse" style="shape=folder;fontStyle=1;spacingTop=10;tabWidth=40;tabHeight=14;tabPosition=left;html=1;whiteSpace=wrap;fontSize=16;" parent="9c7Lphumz_TT43BJqh4M-22" vertex="1">
          <mxGeometry x="540" y="342.09999999999997" width="160" height="54.73" as="geometry" />
        </mxCell>
        <mxCell id="9c7Lphumz_TT43BJqh4M-30" value="InfoBuyResponse" style="shape=folder;fontStyle=1;spacingTop=10;tabWidth=40;tabHeight=14;tabPosition=left;html=1;whiteSpace=wrap;fontSize=16;" parent="9c7Lphumz_TT43BJqh4M-22" vertex="1">
          <mxGeometry x="740" y="156.31" width="160" height="63.69" as="geometry" />
        </mxCell>
        <mxCell id="9c7Lphumz_TT43BJqh4M-31" value="VoucherResponse" style="shape=folder;fontStyle=1;spacingTop=10;tabWidth=40;tabHeight=14;tabPosition=left;html=1;whiteSpace=wrap;fontSize=16;" parent="9c7Lphumz_TT43BJqh4M-22" vertex="1">
          <mxGeometry x="540" y="156.31" width="170" height="63.69" as="geometry" />
        </mxCell>
        <mxCell id="6AY3xpXDXlioXL-E7vEY-5" value="AddressResponse" style="shape=folder;fontStyle=1;spacingTop=10;tabWidth=40;tabHeight=14;tabPosition=left;html=1;whiteSpace=wrap;fontSize=16;" parent="9c7Lphumz_TT43BJqh4M-22" vertex="1">
          <mxGeometry x="540" y="520" width="170" height="61.58" as="geometry" />
        </mxCell>
        <mxCell id="6AY3xpXDXlioXL-E7vEY-6" value="OrderItemResponse" style="shape=folder;fontStyle=1;spacingTop=10;tabWidth=40;tabHeight=14;tabPosition=left;html=1;whiteSpace=wrap;fontSize=16;" parent="9c7Lphumz_TT43BJqh4M-22" vertex="1">
          <mxGeometry x="740" y="520" width="171.82" height="61.58" as="geometry" />
        </mxCell>
        <mxCell id="AuctZN3Iu7-GvN7yatH9-17" value="ApiResponse" style="shape=folder;fontStyle=1;spacingTop=10;tabWidth=40;tabHeight=14;tabPosition=left;html=1;whiteSpace=wrap;fontSize=16;" parent="9c7Lphumz_TT43BJqh4M-22" vertex="1">
          <mxGeometry x="540" y="690" width="170" height="61.58" as="geometry" />
        </mxCell>
        <mxCell id="AuctZN3Iu7-GvN7yatH9-20" value="AuthenticationResponse" style="shape=folder;fontStyle=1;spacingTop=10;tabWidth=40;tabHeight=14;tabPosition=left;html=1;whiteSpace=wrap;fontSize=16;" parent="9c7Lphumz_TT43BJqh4M-22" vertex="1">
          <mxGeometry x="725.91" y="695.78" width="200" height="55.8" as="geometry" />
        </mxCell>
        <mxCell id="uPNDVt0pAV8qcbmSIgeI-3" value="" style="group" vertex="1" connectable="0" parent="9c7Lphumz_TT43BJqh4M-22">
          <mxGeometry x="50" y="72.63" width="430" height="723.16" as="geometry" />
        </mxCell>
        <mxCell id="9c7Lphumz_TT43BJqh4M-44" value="&lt;font style=&quot;font-size: 24px;&quot;&gt;Request&lt;/font&gt;" style="shape=folder;fontStyle=1;spacingTop=10;tabWidth=40;tabHeight=14;tabPosition=left;html=1;whiteSpace=wrap;verticalAlign=top;" parent="uPNDVt0pAV8qcbmSIgeI-3" vertex="1">
          <mxGeometry width="430" height="723.16" as="geometry" />
        </mxCell>
        <mxCell id="9c7Lphumz_TT43BJqh4M-24" value="UserRequest" style="shape=folder;fontStyle=1;spacingTop=10;tabWidth=40;tabHeight=14;tabPosition=left;html=1;whiteSpace=wrap;fontSize=16;" parent="uPNDVt0pAV8qcbmSIgeI-3" vertex="1">
          <mxGeometry x="30" y="75.82" width="140" height="57.34" as="geometry" />
        </mxCell>
        <mxCell id="9c7Lphumz_TT43BJqh4M-25" value="VoucherRequest" style="shape=folder;fontStyle=1;spacingTop=10;tabWidth=40;tabHeight=14;tabPosition=left;html=1;whiteSpace=wrap;fontSize=16;" parent="uPNDVt0pAV8qcbmSIgeI-3" vertex="1">
          <mxGeometry x="230" y="75.82" width="140" height="57.34" as="geometry" />
        </mxCell>
        <mxCell id="9c7Lphumz_TT43BJqh4M-26" value="InfoBuyRequest" style="shape=folder;fontStyle=1;spacingTop=10;tabWidth=40;tabHeight=14;tabPosition=left;html=1;whiteSpace=wrap;fontSize=16;" parent="uPNDVt0pAV8qcbmSIgeI-3" vertex="1">
          <mxGeometry x="230" y="243.16000000000003" width="140" height="67.9" as="geometry" />
        </mxCell>
        <mxCell id="9c7Lphumz_TT43BJqh4M-27" value="GoodsRequest" style="shape=folder;fontStyle=1;spacingTop=10;tabWidth=40;tabHeight=14;tabPosition=left;html=1;whiteSpace=wrap;fontSize=16;" parent="uPNDVt0pAV8qcbmSIgeI-3" vertex="1">
          <mxGeometry x="30" y="243.16000000000003" width="140" height="67.9" as="geometry" />
        </mxCell>
        <mxCell id="6AY3xpXDXlioXL-E7vEY-3" value="AddressRequest" style="shape=folder;fontStyle=1;spacingTop=10;tabWidth=40;tabHeight=14;tabPosition=left;html=1;whiteSpace=wrap;fontSize=16;" parent="uPNDVt0pAV8qcbmSIgeI-3" vertex="1">
          <mxGeometry x="30" y="433.16000000000014" width="140" height="55.8" as="geometry" />
        </mxCell>
        <mxCell id="6AY3xpXDXlioXL-E7vEY-4" value="OrderItemRequest" style="shape=folder;fontStyle=1;spacingTop=10;tabWidth=40;tabHeight=14;tabPosition=left;html=1;whiteSpace=wrap;fontSize=16;" parent="uPNDVt0pAV8qcbmSIgeI-3" vertex="1">
          <mxGeometry x="230" y="433.16" width="171.82" height="55.79" as="geometry" />
        </mxCell>
        <mxCell id="AuctZN3Iu7-GvN7yatH9-19" value="AuthenticationRequest" style="shape=folder;fontStyle=1;spacingTop=10;tabWidth=40;tabHeight=14;tabPosition=left;html=1;whiteSpace=wrap;fontSize=16;" parent="uPNDVt0pAV8qcbmSIgeI-3" vertex="1">
          <mxGeometry x="30" y="623.16" width="200" height="55.8" as="geometry" />
        </mxCell>
        <mxCell id="AuctZN3Iu7-GvN7yatH9-21" value="LogoutRequest" style="shape=folder;fontStyle=1;spacingTop=10;tabWidth=40;tabHeight=14;tabPosition=left;html=1;whiteSpace=wrap;fontSize=16;" parent="uPNDVt0pAV8qcbmSIgeI-3" vertex="1">
          <mxGeometry x="260" y="623.16" width="140" height="55.8" as="geometry" />
        </mxCell>
        <mxCell id="9c7Lphumz_TT43BJqh4M-32" value="" style="group" parent="1" vertex="1" connectable="0">
          <mxGeometry x="845" y="-570" width="840" height="320" as="geometry" />
        </mxCell>
        <mxCell id="9c7Lphumz_TT43BJqh4M-33" value="Configuration" style="shape=folder;fontStyle=1;spacingTop=10;tabWidth=40;tabHeight=14;tabPosition=left;html=1;whiteSpace=wrap;verticalAlign=top;fontSize=32;" parent="9c7Lphumz_TT43BJqh4M-32" vertex="1">
          <mxGeometry width="840" height="320" as="geometry" />
        </mxCell>
        <mxCell id="9c7Lphumz_TT43BJqh4M-34" value="ApplicationInitConfig" style="shape=folder;fontStyle=1;spacingTop=10;tabWidth=40;tabHeight=14;tabPosition=left;html=1;whiteSpace=wrap;fontSize=16;" parent="9c7Lphumz_TT43BJqh4M-32" vertex="1">
          <mxGeometry x="29.99909090909091" y="69" width="254.54545454545453" height="95" as="geometry" />
        </mxCell>
        <mxCell id="9c7Lphumz_TT43BJqh4M-35" value="CustomJwtDecoder" style="shape=folder;fontStyle=1;spacingTop=10;tabWidth=40;tabHeight=14;tabPosition=left;html=1;whiteSpace=wrap;fontSize=16;" parent="9c7Lphumz_TT43BJqh4M-32" vertex="1">
          <mxGeometry x="299.99636363636364" y="69" width="254.54545454545453" height="95" as="geometry" />
        </mxCell>
        <mxCell id="9c7Lphumz_TT43BJqh4M-36" value="SecurityConfig" style="shape=folder;fontStyle=1;spacingTop=10;tabWidth=40;tabHeight=14;tabPosition=left;html=1;whiteSpace=wrap;fontSize=16;" parent="9c7Lphumz_TT43BJqh4M-32" vertex="1">
          <mxGeometry x="299.99636363636364" y="189" width="254.54545454545453" height="95" as="geometry" />
        </mxCell>
        <mxCell id="9c7Lphumz_TT43BJqh4M-37" value="JwtAuthenticationEntryPoint" style="shape=folder;fontStyle=1;spacingTop=10;tabWidth=40;tabHeight=14;tabPosition=left;html=1;whiteSpace=wrap;fontSize=16;" parent="9c7Lphumz_TT43BJqh4M-32" vertex="1">
          <mxGeometry x="29.99909090909091" y="189" width="254.54545454545453" height="95" as="geometry" />
        </mxCell>
        <mxCell id="6AY3xpXDXlioXL-E7vEY-52" value="PaymentConfig" style="shape=folder;fontStyle=1;spacingTop=10;tabWidth=40;tabHeight=14;tabPosition=left;html=1;whiteSpace=wrap;fontSize=16;" parent="9c7Lphumz_TT43BJqh4M-32" vertex="1">
          <mxGeometry x="569.9963636363636" y="130" width="254.54545454545453" height="95" as="geometry" />
        </mxCell>
        <mxCell id="9c7Lphumz_TT43BJqh4M-38" value="" style="group" parent="1" vertex="1" connectable="0">
          <mxGeometry x="730" y="190" width="440" height="320" as="geometry" />
        </mxCell>
        <mxCell id="9c7Lphumz_TT43BJqh4M-39" value="Exception" style="shape=folder;fontStyle=1;spacingTop=10;tabWidth=40;tabHeight=14;tabPosition=left;html=1;whiteSpace=wrap;verticalAlign=top;fontSize=32;" parent="9c7Lphumz_TT43BJqh4M-38" vertex="1">
          <mxGeometry width="440" height="320" as="geometry" />
        </mxCell>
        <mxCell id="9c7Lphumz_TT43BJqh4M-40" value="AppException" style="shape=folder;fontStyle=1;spacingTop=10;tabWidth=40;tabHeight=14;tabPosition=left;html=1;whiteSpace=wrap;fontSize=16;" parent="9c7Lphumz_TT43BJqh4M-38" vertex="1">
          <mxGeometry x="30" y="69" width="180" height="95" as="geometry" />
        </mxCell>
        <mxCell id="9c7Lphumz_TT43BJqh4M-41" value="GlobalHandleException" style="shape=folder;fontStyle=1;spacingTop=10;tabWidth=40;tabHeight=14;tabPosition=left;html=1;whiteSpace=wrap;fontSize=16;" parent="9c7Lphumz_TT43BJqh4M-38" vertex="1">
          <mxGeometry x="95" y="189" width="250" height="95" as="geometry" />
        </mxCell>
        <mxCell id="9c7Lphumz_TT43BJqh4M-42" value="ErrorCode" style="shape=folder;fontStyle=1;spacingTop=10;tabWidth=40;tabHeight=14;tabPosition=left;html=1;whiteSpace=wrap;fontSize=16;" parent="9c7Lphumz_TT43BJqh4M-38" vertex="1">
          <mxGeometry x="230" y="69" width="180" height="95" as="geometry" />
        </mxCell>
        <mxCell id="6AY3xpXDXlioXL-E7vEY-7" value="" style="group" parent="1" vertex="1" connectable="0">
          <mxGeometry x="-1210" y="-390" width="650" height="550" as="geometry" />
        </mxCell>
        <mxCell id="6AY3xpXDXlioXL-E7vEY-8" value="Mapper" style="shape=folder;fontStyle=1;spacingTop=10;tabWidth=40;tabHeight=14;tabPosition=left;html=1;whiteSpace=wrap;verticalAlign=top;fontSize=32;" parent="6AY3xpXDXlioXL-E7vEY-7" vertex="1">
          <mxGeometry width="650" height="550" as="geometry" />
        </mxCell>
        <mxCell id="6AY3xpXDXlioXL-E7vEY-9" value="UserMapper" style="shape=folder;fontStyle=1;spacingTop=10;tabWidth=40;tabHeight=14;tabPosition=left;html=1;whiteSpace=wrap;fontSize=16;" parent="6AY3xpXDXlioXL-E7vEY-7" vertex="1">
          <mxGeometry x="67.05" y="84.61538461538461" width="187.73" height="56.768461538461544" as="geometry" />
        </mxCell>
        <mxCell id="6AY3xpXDXlioXL-E7vEY-10" value="VoucherMapper" style="shape=folder;fontStyle=1;spacingTop=10;tabWidth=40;tabHeight=14;tabPosition=left;html=1;whiteSpace=wrap;fontSize=16;" parent="6AY3xpXDXlioXL-E7vEY-7" vertex="1">
          <mxGeometry x="380" y="84.61538461538461" width="187.73" height="56.768461538461544" as="geometry" />
        </mxCell>
        <mxCell id="6AY3xpXDXlioXL-E7vEY-11" value="InfoBuyMapper" style="shape=folder;fontStyle=1;spacingTop=10;tabWidth=40;tabHeight=14;tabPosition=left;html=1;whiteSpace=wrap;fontSize=16;" parent="6AY3xpXDXlioXL-E7vEY-7" vertex="1">
          <mxGeometry x="380" y="177.69" width="187.73" height="62.31" as="geometry" />
        </mxCell>
        <mxCell id="6AY3xpXDXlioXL-E7vEY-12" value="GoodsMapper" style="shape=folder;fontStyle=1;spacingTop=10;tabWidth=40;tabHeight=14;tabPosition=left;html=1;whiteSpace=wrap;fontSize=16;" parent="6AY3xpXDXlioXL-E7vEY-7" vertex="1">
          <mxGeometry x="67.05" y="177.6923076923077" width="187.73" height="62.05692307692308" as="geometry" />
        </mxCell>
        <mxCell id="6AY3xpXDXlioXL-E7vEY-56" value="GoodsReviewMapper" style="shape=folder;fontStyle=1;spacingTop=10;tabWidth=40;tabHeight=14;tabPosition=left;html=1;whiteSpace=wrap;fontSize=16;" parent="6AY3xpXDXlioXL-E7vEY-7" vertex="1">
          <mxGeometry x="67.05" y="270.7692307692308" width="187.73" height="62.05692307692308" as="geometry" />
        </mxCell>
        <mxCell id="6AY3xpXDXlioXL-E7vEY-57" value="RoleMapper" style="shape=folder;fontStyle=1;spacingTop=10;tabWidth=40;tabHeight=14;tabPosition=left;html=1;whiteSpace=wrap;fontSize=16;" parent="6AY3xpXDXlioXL-E7vEY-7" vertex="1">
          <mxGeometry x="380" y="270" width="210" height="67.69" as="geometry" />
        </mxCell>
        <mxCell id="6AY3xpXDXlioXL-E7vEY-58" value="AddressMapper" style="shape=folder;fontStyle=1;spacingTop=10;tabWidth=40;tabHeight=14;tabPosition=left;html=1;whiteSpace=wrap;fontSize=16;" parent="6AY3xpXDXlioXL-E7vEY-7" vertex="1">
          <mxGeometry x="67.05" y="372.31" width="222.95" height="67.69" as="geometry" />
        </mxCell>
        <mxCell id="6AY3xpXDXlioXL-E7vEY-32" value="" style="group" parent="1" vertex="1" connectable="0">
          <mxGeometry x="-1160" y="-1020" width="610" height="490" as="geometry" />
        </mxCell>
        <mxCell id="6AY3xpXDXlioXL-E7vEY-33" value="Controller" style="shape=folder;fontStyle=1;spacingTop=10;tabWidth=40;tabHeight=14;tabPosition=left;html=1;whiteSpace=wrap;verticalAlign=top;fontSize=32;" parent="6AY3xpXDXlioXL-E7vEY-32" vertex="1">
          <mxGeometry width="610" height="489.99999999999994" as="geometry" />
        </mxCell>
        <mxCell id="6AY3xpXDXlioXL-E7vEY-34" value="UserController" style="shape=folder;fontStyle=1;spacingTop=10;tabWidth=40;tabHeight=14;tabPosition=left;html=1;whiteSpace=wrap;fontSize=16;" parent="6AY3xpXDXlioXL-E7vEY-32" vertex="1">
          <mxGeometry x="30.5" y="105.66" width="174.68" height="84.34" as="geometry" />
        </mxCell>
        <mxCell id="6AY3xpXDXlioXL-E7vEY-35" value="VoucherController" style="shape=folder;fontStyle=1;spacingTop=10;tabWidth=40;tabHeight=14;tabPosition=left;html=1;whiteSpace=wrap;fontSize=16;" parent="6AY3xpXDXlioXL-E7vEY-32" vertex="1">
          <mxGeometry x="213.5" y="105.66" width="174.68" height="84.34" as="geometry" />
        </mxCell>
        <mxCell id="6AY3xpXDXlioXL-E7vEY-36" value="InfoBuyController" style="shape=folder;fontStyle=1;spacingTop=10;tabWidth=40;tabHeight=14;tabPosition=left;html=1;whiteSpace=wrap;fontSize=16;" parent="6AY3xpXDXlioXL-E7vEY-32" vertex="1">
          <mxGeometry x="213.5" y="360" width="174.68" height="70.59" as="geometry" />
        </mxCell>
        <mxCell id="6AY3xpXDXlioXL-E7vEY-37" value="GoodsController" style="shape=folder;fontStyle=1;spacingTop=10;tabWidth=40;tabHeight=14;tabPosition=left;html=1;whiteSpace=wrap;fontSize=16;" parent="6AY3xpXDXlioXL-E7vEY-32" vertex="1">
          <mxGeometry x="30.5" y="360" width="174.68" height="70.59" as="geometry" />
        </mxCell>
        <mxCell id="6AY3xpXDXlioXL-E7vEY-38" value="AddressController" style="shape=folder;fontStyle=1;spacingTop=10;tabWidth=40;tabHeight=14;tabPosition=left;html=1;whiteSpace=wrap;fontSize=16;" parent="6AY3xpXDXlioXL-E7vEY-32" vertex="1">
          <mxGeometry x="396.5" y="105.66" width="174.68" height="84.34" as="geometry" />
        </mxCell>
        <mxCell id="6AY3xpXDXlioXL-E7vEY-39" value="OrderItemController" style="shape=folder;fontStyle=1;spacingTop=10;tabWidth=40;tabHeight=14;tabPosition=left;html=1;whiteSpace=wrap;fontSize=16;" parent="6AY3xpXDXlioXL-E7vEY-32" vertex="1">
          <mxGeometry x="396.5" y="360" width="174.68" height="70.59" as="geometry" />
        </mxCell>
        <mxCell id="6AY3xpXDXlioXL-E7vEY-40" value="GoodsReviewController" style="shape=folder;fontStyle=1;spacingTop=10;tabWidth=40;tabHeight=14;tabPosition=left;html=1;whiteSpace=wrap;fontSize=16;" parent="6AY3xpXDXlioXL-E7vEY-32" vertex="1">
          <mxGeometry x="30.5" y="230" width="219.5" height="84.34" as="geometry" />
        </mxCell>
        <mxCell id="6AY3xpXDXlioXL-E7vEY-41" value="RoleController" style="shape=folder;fontStyle=1;spacingTop=10;tabWidth=40;tabHeight=14;tabPosition=left;html=1;whiteSpace=wrap;fontSize=16;" parent="6AY3xpXDXlioXL-E7vEY-32" vertex="1">
          <mxGeometry x="396.5" y="230" width="174.68" height="84.34" as="geometry" />
        </mxCell>
        <mxCell id="6AY3xpXDXlioXL-E7vEY-42" value="" style="group" parent="1" vertex="1" connectable="0">
          <mxGeometry x="-240" y="-950" width="610" height="490" as="geometry" />
        </mxCell>
        <mxCell id="6AY3xpXDXlioXL-E7vEY-43" value="Service" style="shape=folder;fontStyle=1;spacingTop=10;tabWidth=40;tabHeight=14;tabPosition=left;html=1;whiteSpace=wrap;verticalAlign=top;fontSize=32;" parent="6AY3xpXDXlioXL-E7vEY-42" vertex="1">
          <mxGeometry width="610" height="489.99999999999994" as="geometry" />
        </mxCell>
        <mxCell id="6AY3xpXDXlioXL-E7vEY-44" value="UserService" style="shape=folder;fontStyle=1;spacingTop=10;tabWidth=40;tabHeight=14;tabPosition=left;html=1;whiteSpace=wrap;fontSize=16;" parent="6AY3xpXDXlioXL-E7vEY-42" vertex="1">
          <mxGeometry x="30.5" y="105.66" width="174.68" height="84.34" as="geometry" />
        </mxCell>
        <mxCell id="6AY3xpXDXlioXL-E7vEY-45" value="VoucherService" style="shape=folder;fontStyle=1;spacingTop=10;tabWidth=40;tabHeight=14;tabPosition=left;html=1;whiteSpace=wrap;fontSize=16;" parent="6AY3xpXDXlioXL-E7vEY-42" vertex="1">
          <mxGeometry x="213.5" y="105.66" width="174.68" height="84.34" as="geometry" />
        </mxCell>
        <mxCell id="6AY3xpXDXlioXL-E7vEY-46" value="InfoBuyService" style="shape=folder;fontStyle=1;spacingTop=10;tabWidth=40;tabHeight=14;tabPosition=left;html=1;whiteSpace=wrap;fontSize=16;" parent="6AY3xpXDXlioXL-E7vEY-42" vertex="1">
          <mxGeometry x="213.5" y="360" width="174.68" height="70.59" as="geometry" />
        </mxCell>
        <mxCell id="6AY3xpXDXlioXL-E7vEY-47" value="GoodsService" style="shape=folder;fontStyle=1;spacingTop=10;tabWidth=40;tabHeight=14;tabPosition=left;html=1;whiteSpace=wrap;fontSize=16;" parent="6AY3xpXDXlioXL-E7vEY-42" vertex="1">
          <mxGeometry x="30.5" y="360" width="174.68" height="70.59" as="geometry" />
        </mxCell>
        <mxCell id="6AY3xpXDXlioXL-E7vEY-48" value="AddressService" style="shape=folder;fontStyle=1;spacingTop=10;tabWidth=40;tabHeight=14;tabPosition=left;html=1;whiteSpace=wrap;fontSize=16;" parent="6AY3xpXDXlioXL-E7vEY-42" vertex="1">
          <mxGeometry x="396.5" y="105.66" width="174.68" height="84.34" as="geometry" />
        </mxCell>
        <mxCell id="6AY3xpXDXlioXL-E7vEY-49" value="OrderItemService" style="shape=folder;fontStyle=1;spacingTop=10;tabWidth=40;tabHeight=14;tabPosition=left;html=1;whiteSpace=wrap;fontSize=16;" parent="6AY3xpXDXlioXL-E7vEY-42" vertex="1">
          <mxGeometry x="396.5" y="360" width="174.68" height="70.59" as="geometry" />
        </mxCell>
        <mxCell id="6AY3xpXDXlioXL-E7vEY-50" value="GoodsReviewService" style="shape=folder;fontStyle=1;spacingTop=10;tabWidth=40;tabHeight=14;tabPosition=left;html=1;whiteSpace=wrap;fontSize=16;" parent="6AY3xpXDXlioXL-E7vEY-42" vertex="1">
          <mxGeometry x="30.5" y="230" width="174.68" height="84.34" as="geometry" />
        </mxCell>
        <mxCell id="6AY3xpXDXlioXL-E7vEY-51" value="RoleService" style="shape=folder;fontStyle=1;spacingTop=10;tabWidth=40;tabHeight=14;tabPosition=left;html=1;whiteSpace=wrap;fontSize=16;" parent="6AY3xpXDXlioXL-E7vEY-42" vertex="1">
          <mxGeometry x="396.5" y="230" width="174.68" height="84.34" as="geometry" />
        </mxCell>
        <mxCell id="AuctZN3Iu7-GvN7yatH9-28" value="" style="endArrow=none;endSize=12;dashed=1;html=1;rounded=0;exitX=0;exitY=0;exitDx=0;exitDy=251.99999999999997;exitPerimeter=0;entryX=0;entryY=0;entryDx=610;entryDy=251.99999999999997;entryPerimeter=0;fontSize=30;strokeWidth=4;endFill=0;startArrow=open;startFill=0;" parent="1" source="6AY3xpXDXlioXL-E7vEY-43" target="6AY3xpXDXlioXL-E7vEY-33" edge="1">
          <mxGeometry width="160" relative="1" as="geometry">
            <mxPoint x="50" y="1402" as="sourcePoint" />
            <mxPoint x="360" y="1593" as="targetPoint" />
          </mxGeometry>
        </mxCell>
        <mxCell id="uPNDVt0pAV8qcbmSIgeI-11" value="&lt;font style=&quot;font-size: 16px;&quot;&gt;Uses&lt;/font&gt;" style="edgeLabel;html=1;align=center;verticalAlign=middle;resizable=0;points=[];" vertex="1" connectable="0" parent="AuctZN3Iu7-GvN7yatH9-28">
          <mxGeometry x="0.013" y="1" relative="1" as="geometry">
            <mxPoint as="offset" />
          </mxGeometry>
        </mxCell>
        <mxCell id="9c7Lphumz_TT43BJqh4M-47" value="" style="group" parent="1" vertex="1" connectable="0">
          <mxGeometry x="800" y="-1030" width="780" height="530" as="geometry" />
        </mxCell>
        <mxCell id="9c7Lphumz_TT43BJqh4M-48" value="Repository" style="shape=folder;fontStyle=1;spacingTop=10;tabWidth=40;tabHeight=14;tabPosition=left;html=1;whiteSpace=wrap;verticalAlign=top;fontSize=32;" parent="9c7Lphumz_TT43BJqh4M-47" vertex="1">
          <mxGeometry width="780" height="530" as="geometry" />
        </mxCell>
        <mxCell id="9c7Lphumz_TT43BJqh4M-49" value="UserRepository" style="shape=folder;fontStyle=1;spacingTop=10;tabWidth=40;tabHeight=14;tabPosition=left;html=1;whiteSpace=wrap;fontSize=16;" parent="9c7Lphumz_TT43BJqh4M-47" vertex="1">
          <mxGeometry x="88.64" y="65.08771929824562" width="201.36" height="80.97842105263159" as="geometry" />
        </mxCell>
        <mxCell id="9c7Lphumz_TT43BJqh4M-50" value="VoucherRepository" style="shape=folder;fontStyle=1;spacingTop=10;tabWidth=40;tabHeight=14;tabPosition=left;html=1;whiteSpace=wrap;fontSize=16;" parent="9c7Lphumz_TT43BJqh4M-47" vertex="1">
          <mxGeometry x="452.05" y="65.08771929824562" width="248.18" height="80.97842105263159" as="geometry" />
        </mxCell>
        <mxCell id="9c7Lphumz_TT43BJqh4M-51" value="InfoBuyRepository" style="shape=folder;fontStyle=1;spacingTop=10;tabWidth=40;tabHeight=14;tabPosition=left;html=1;whiteSpace=wrap;fontSize=16;" parent="9c7Lphumz_TT43BJqh4M-47" vertex="1">
          <mxGeometry x="452.05" y="185.96491228070178" width="248.18" height="68.19333333333334" as="geometry" />
        </mxCell>
        <mxCell id="9c7Lphumz_TT43BJqh4M-52" value="GoodsRepository" style="shape=folder;fontStyle=1;spacingTop=10;tabWidth=40;tabHeight=14;tabPosition=left;html=1;whiteSpace=wrap;fontSize=16;" parent="9c7Lphumz_TT43BJqh4M-47" vertex="1">
          <mxGeometry x="88.64" y="185.96491228070178" width="248.18" height="68.19333333333334" as="geometry" />
        </mxCell>
        <mxCell id="6AY3xpXDXlioXL-E7vEY-53" value="GoodsReviewRepository" style="shape=folder;fontStyle=1;spacingTop=10;tabWidth=40;tabHeight=14;tabPosition=left;html=1;whiteSpace=wrap;fontSize=16;" parent="9c7Lphumz_TT43BJqh4M-47" vertex="1">
          <mxGeometry x="88.64" y="297.5438596491228" width="248.18" height="68.19333333333334" as="geometry" />
        </mxCell>
        <mxCell id="6AY3xpXDXlioXL-E7vEY-54" value="RoleRepository" style="shape=folder;fontStyle=1;spacingTop=10;tabWidth=40;tabHeight=14;tabPosition=left;html=1;whiteSpace=wrap;fontSize=16;" parent="9c7Lphumz_TT43BJqh4M-47" vertex="1">
          <mxGeometry x="452.05" y="297.5438596491228" width="248.18" height="68.19333333333334" as="geometry" />
        </mxCell>
        <mxCell id="6AY3xpXDXlioXL-E7vEY-55" value="AddressRepository" style="shape=folder;fontStyle=1;spacingTop=10;tabWidth=40;tabHeight=14;tabPosition=left;html=1;whiteSpace=wrap;fontSize=16;" parent="9c7Lphumz_TT43BJqh4M-47" vertex="1">
          <mxGeometry x="88.64" y="409.12280701754383" width="248.18" height="68.19333333333334" as="geometry" />
        </mxCell>
        <mxCell id="uPNDVt0pAV8qcbmSIgeI-7" value="" style="group;fontSize=64;" vertex="1" connectable="0" parent="1">
          <mxGeometry x="1000" y="1100" width="770" height="690" as="geometry" />
        </mxCell>
        <mxCell id="uPNDVt0pAV8qcbmSIgeI-6" value="Domain" style="rounded=0;whiteSpace=wrap;html=1;fontSize=64;fontStyle=1;verticalAlign=top;" vertex="1" parent="uPNDVt0pAV8qcbmSIgeI-7">
          <mxGeometry width="770" height="690" as="geometry" />
        </mxCell>
        <mxCell id="9c7Lphumz_TT43BJqh4M-19" value="" style="group" parent="uPNDVt0pAV8qcbmSIgeI-7" vertex="1" connectable="0">
          <mxGeometry x="88" y="100" width="610" height="490" as="geometry" />
        </mxCell>
        <mxCell id="9c7Lphumz_TT43BJqh4M-1" value="Entity" style="shape=folder;fontStyle=1;spacingTop=10;tabWidth=40;tabHeight=14;tabPosition=left;html=1;whiteSpace=wrap;verticalAlign=top;fontSize=32;" parent="9c7Lphumz_TT43BJqh4M-19" vertex="1">
          <mxGeometry width="610" height="489.99999999999994" as="geometry" />
        </mxCell>
        <mxCell id="9c7Lphumz_TT43BJqh4M-6" value="User" style="shape=folder;fontStyle=1;spacingTop=10;tabWidth=40;tabHeight=14;tabPosition=left;html=1;whiteSpace=wrap;fontSize=16;" parent="9c7Lphumz_TT43BJqh4M-19" vertex="1">
          <mxGeometry x="30.5" y="105.66" width="174.68" height="84.34" as="geometry" />
        </mxCell>
        <mxCell id="9c7Lphumz_TT43BJqh4M-7" value="Voucher" style="shape=folder;fontStyle=1;spacingTop=10;tabWidth=40;tabHeight=14;tabPosition=left;html=1;whiteSpace=wrap;fontSize=16;" parent="9c7Lphumz_TT43BJqh4M-19" vertex="1">
          <mxGeometry x="213.5" y="105.66" width="174.68" height="84.34" as="geometry" />
        </mxCell>
        <mxCell id="9c7Lphumz_TT43BJqh4M-8" value="InfoBuy" style="shape=folder;fontStyle=1;spacingTop=10;tabWidth=40;tabHeight=14;tabPosition=left;html=1;whiteSpace=wrap;fontSize=16;" parent="9c7Lphumz_TT43BJqh4M-19" vertex="1">
          <mxGeometry x="213.5" y="360" width="174.68" height="70.59" as="geometry" />
        </mxCell>
        <mxCell id="9c7Lphumz_TT43BJqh4M-9" value="Goods" style="shape=folder;fontStyle=1;spacingTop=10;tabWidth=40;tabHeight=14;tabPosition=left;html=1;whiteSpace=wrap;fontSize=16;" parent="9c7Lphumz_TT43BJqh4M-19" vertex="1">
          <mxGeometry x="30.5" y="360" width="174.68" height="70.59" as="geometry" />
        </mxCell>
        <mxCell id="6AY3xpXDXlioXL-E7vEY-1" value="Address" style="shape=folder;fontStyle=1;spacingTop=10;tabWidth=40;tabHeight=14;tabPosition=left;html=1;whiteSpace=wrap;fontSize=16;" parent="9c7Lphumz_TT43BJqh4M-19" vertex="1">
          <mxGeometry x="396.5" y="105.66" width="174.68" height="84.34" as="geometry" />
        </mxCell>
        <mxCell id="6AY3xpXDXlioXL-E7vEY-2" value="OrderItem" style="shape=folder;fontStyle=1;spacingTop=10;tabWidth=40;tabHeight=14;tabPosition=left;html=1;whiteSpace=wrap;fontSize=16;" parent="9c7Lphumz_TT43BJqh4M-19" vertex="1">
          <mxGeometry x="396.5" y="360" width="174.68" height="70.59" as="geometry" />
        </mxCell>
        <mxCell id="6AY3xpXDXlioXL-E7vEY-21" value="GoodsReview" style="shape=folder;fontStyle=1;spacingTop=10;tabWidth=40;tabHeight=14;tabPosition=left;html=1;whiteSpace=wrap;fontSize=16;" parent="9c7Lphumz_TT43BJqh4M-19" vertex="1">
          <mxGeometry x="30.5" y="230" width="174.68" height="84.34" as="geometry" />
        </mxCell>
        <mxCell id="6AY3xpXDXlioXL-E7vEY-31" value="Role" style="shape=folder;fontStyle=1;spacingTop=10;tabWidth=40;tabHeight=14;tabPosition=left;html=1;whiteSpace=wrap;fontSize=16;" parent="9c7Lphumz_TT43BJqh4M-19" vertex="1">
          <mxGeometry x="396.5" y="230" width="174.68" height="84.34" as="geometry" />
        </mxCell>
        <mxCell id="AuctZN3Iu7-GvN7yatH9-18" value="InvalidatedToken" style="shape=folder;fontStyle=1;spacingTop=10;tabWidth=40;tabHeight=14;tabPosition=left;html=1;whiteSpace=wrap;fontSize=16;" parent="9c7Lphumz_TT43BJqh4M-19" vertex="1">
          <mxGeometry x="213.5" y="230" width="174.68" height="84.34" as="geometry" />
        </mxCell>
        <mxCell id="uPNDVt0pAV8qcbmSIgeI-8" value="" style="endArrow=none;endSize=12;dashed=1;html=1;rounded=0;exitX=0;exitY=0;exitDx=650;exitDy=173;exitPerimeter=0;fontSize=30;strokeWidth=4;endFill=0;startArrow=open;startFill=0;" edge="1" parent="1" source="6AY3xpXDXlioXL-E7vEY-8">
          <mxGeometry width="160" relative="1" as="geometry">
            <mxPoint x="-230" y="-688" as="sourcePoint" />
            <mxPoint x="-80" y="-450" as="targetPoint" />
          </mxGeometry>
        </mxCell>
        <mxCell id="uPNDVt0pAV8qcbmSIgeI-12" value="Uses" style="edgeLabel;html=1;align=center;verticalAlign=middle;resizable=0;points=[];fontSize=16;" vertex="1" connectable="0" parent="uPNDVt0pAV8qcbmSIgeI-8">
          <mxGeometry x="0.0057" y="2" relative="1" as="geometry">
            <mxPoint as="offset" />
          </mxGeometry>
        </mxCell>
        <mxCell id="uPNDVt0pAV8qcbmSIgeI-9" value="" style="endArrow=none;endSize=12;dashed=1;html=1;rounded=0;exitX=0;exitY=0;exitDx=500;exitDy=14;exitPerimeter=0;fontSize=30;strokeWidth=4;endFill=0;startArrow=open;startFill=0;entryX=0;entryY=0;entryDx=650;entryDy=416;entryPerimeter=0;" edge="1" parent="1" source="9c7Lphumz_TT43BJqh4M-23" target="6AY3xpXDXlioXL-E7vEY-8">
          <mxGeometry width="160" relative="1" as="geometry">
            <mxPoint x="-450" y="-217" as="sourcePoint" />
            <mxPoint x="-70" y="-440" as="targetPoint" />
          </mxGeometry>
        </mxCell>
        <mxCell id="uPNDVt0pAV8qcbmSIgeI-13" value="Uses" style="edgeLabel;html=1;align=center;verticalAlign=middle;resizable=0;points=[];fontSize=16;" vertex="1" connectable="0" parent="uPNDVt0pAV8qcbmSIgeI-9">
          <mxGeometry x="0.0051" y="1" relative="1" as="geometry">
            <mxPoint as="offset" />
          </mxGeometry>
        </mxCell>
      </root>
    </mxGraphModel>
  </diagram>
</mxfile>
